<mxfile host="app.diagrams.net" modified="2023-03-14T08:47:05.106Z" agent="5.0 (Macintosh; Intel Mac OS X 10_15_7) AppleWebKit/537.36 (KHTML, like Gecko) Chrome/110.0.0.0 Safari/537.36" etag="PzUckSZJKF1TNHS4dBPq" version="20.8.21" type="github">
  <diagram id="R2lEEEUBdFMjLlhIrx00" name="Page-1">
    <mxGraphModel dx="2017" dy="688" grid="1" gridSize="10" guides="1" tooltips="1" connect="1" arrows="1" fold="1" page="1" pageScale="1" pageWidth="850" pageHeight="1100" math="0" shadow="0" extFonts="Permanent Marker^https://fonts.googleapis.com/css?family=Permanent+Marker">
      <root>
        <mxCell id="0" />
        <mxCell id="1" parent="0" />
        <mxCell id="gtmzRNA8-i3t7xTge9IE-1" value="分级分榜单" style="swimlane;fontStyle=0;childLayout=stackLayout;horizontal=1;startSize=30;horizontalStack=0;resizeParent=1;resizeParentMax=0;resizeLast=0;collapsible=1;marginBottom=0;whiteSpace=wrap;html=1;fillColor=#fff2cc;strokeColor=#d6b656;rounded=1;" vertex="1" parent="1">
          <mxGeometry x="140" y="370" width="130" height="90" as="geometry">
            <mxRectangle x="140" y="370" width="60" height="30" as="alternateBounds" />
          </mxGeometry>
        </mxCell>
        <mxCell id="gtmzRNA8-i3t7xTge9IE-4" value="创建时间&lt;br&gt;支部&lt;br&gt;部门" style="text;strokeColor=none;fillColor=none;align=left;verticalAlign=top;spacingLeft=4;spacingRight=4;overflow=hidden;points=[[0,0.5],[1,0.5]];portConstraint=eastwest;rotatable=0;whiteSpace=wrap;html=1;" vertex="1" parent="gtmzRNA8-i3t7xTge9IE-1">
          <mxGeometry y="30" width="130" height="60" as="geometry" />
        </mxCell>
        <mxCell id="gtmzRNA8-i3t7xTge9IE-35" value="榜单" style="swimlane;fontStyle=0;childLayout=stackLayout;horizontal=1;startSize=30;horizontalStack=0;resizeParent=1;resizeParentMax=0;resizeLast=0;collapsible=1;marginBottom=0;whiteSpace=wrap;html=1;fillColor=#fff2cc;strokeColor=#d6b656;rounded=1;" vertex="1" parent="1">
          <mxGeometry x="-350" y="530" width="170" height="160" as="geometry">
            <mxRectangle x="150" y="440" width="60" height="30" as="alternateBounds" />
          </mxGeometry>
        </mxCell>
        <mxCell id="gtmzRNA8-i3t7xTge9IE-36" value="创建时间&lt;br&gt;" style="text;strokeColor=none;fillColor=none;align=left;verticalAlign=top;spacingLeft=4;spacingRight=4;overflow=hidden;points=[[0,0.5],[1,0.5]];portConstraint=eastwest;rotatable=0;whiteSpace=wrap;html=1;" vertex="1" parent="gtmzRNA8-i3t7xTge9IE-35">
          <mxGeometry y="30" width="170" height="130" as="geometry" />
        </mxCell>
        <mxCell id="gtmzRNA8-i3t7xTge9IE-44" value="" style="edgeStyle=none;rounded=0;orthogonalLoop=1;jettySize=auto;html=1;strokeWidth=1;fontSize=11;endArrow=none;endFill=0;endSize=0;" edge="1" parent="1" source="gtmzRNA8-i3t7xTge9IE-37" target="gtmzRNA8-i3t7xTge9IE-39">
          <mxGeometry relative="1" as="geometry" />
        </mxCell>
        <mxCell id="gtmzRNA8-i3t7xTge9IE-37" value="积分大类" style="swimlane;fontStyle=0;childLayout=stackLayout;horizontal=1;startSize=30;horizontalStack=0;resizeParent=1;resizeParentMax=0;resizeLast=0;collapsible=1;marginBottom=0;whiteSpace=wrap;html=1;fillColor=#fff2cc;strokeColor=#d6b656;rounded=1;" vertex="1" parent="1">
          <mxGeometry x="340" y="220" width="130" height="90" as="geometry">
            <mxRectangle x="340" y="220" width="60" height="30" as="alternateBounds" />
          </mxGeometry>
        </mxCell>
        <mxCell id="gtmzRNA8-i3t7xTge9IE-38" value="创建时间&lt;br&gt;支部&lt;br&gt;部门" style="text;strokeColor=none;fillColor=none;align=left;verticalAlign=top;spacingLeft=4;spacingRight=4;overflow=hidden;points=[[0,0.5],[1,0.5]];portConstraint=eastwest;rotatable=0;whiteSpace=wrap;html=1;" vertex="1" parent="gtmzRNA8-i3t7xTge9IE-37">
          <mxGeometry y="30" width="130" height="60" as="geometry" />
        </mxCell>
        <mxCell id="gtmzRNA8-i3t7xTge9IE-41" style="edgeStyle=none;rounded=0;orthogonalLoop=1;jettySize=auto;html=1;exitX=0.5;exitY=1;exitDx=0;exitDy=0;strokeWidth=1;fontSize=11;endArrow=none;endFill=0;endSize=0;entryX=0.5;entryY=0;entryDx=0;entryDy=0;" edge="1" parent="1" source="gtmzRNA8-i3t7xTge9IE-39" target="gtmzRNA8-i3t7xTge9IE-1">
          <mxGeometry relative="1" as="geometry" />
        </mxCell>
        <mxCell id="gtmzRNA8-i3t7xTge9IE-39" value="规则" style="rhombus;whiteSpace=wrap;html=1;rounded=0;fillColor=#dae8fc;strokeColor=#6c8ebf;" vertex="1" parent="1">
          <mxGeometry x="167.5" y="235" width="95" height="60" as="geometry" />
        </mxCell>
        <mxCell id="gtmzRNA8-i3t7xTge9IE-42" value="" style="swimlane;startSize=0;rounded=0;fontSize=11;fillColor=#f5f5f5;fontColor=#333333;strokeColor=#666666;" vertex="1" parent="1">
          <mxGeometry x="90" y="130" width="190" height="70" as="geometry">
            <mxRectangle x="90" y="130" width="50" height="40" as="alternateBounds" />
          </mxGeometry>
        </mxCell>
        <mxCell id="gtmzRNA8-i3t7xTge9IE-43" style="rounded=0;orthogonalLoop=1;jettySize=auto;html=1;exitX=0.5;exitY=0;exitDx=0;exitDy=0;fontSize=11;horizontal=0;endSize=0;strokeWidth=1;endArrow=none;endFill=0;entryX=0.5;entryY=1;entryDx=0;entryDy=0;" edge="1" parent="1" source="gtmzRNA8-i3t7xTge9IE-39" target="gtmzRNA8-i3t7xTge9IE-42">
          <mxGeometry relative="1" as="geometry">
            <mxPoint x="273" y="275" as="sourcePoint" />
            <mxPoint x="350" y="270" as="targetPoint" />
          </mxGeometry>
        </mxCell>
      </root>
    </mxGraphModel>
  </diagram>
</mxfile>
